{
.appVersion = "3219";
.formatVersion = 3;
DisplayStrings = (
g,
i,
"CA.;TB",
u,
"PAID
paid",
pax,
r,
D,
d,
n,
"ABCDEFHIJKLMNOP
QRSTUVWXYZ
abcdefghijklmnop
qrstuvwxyz",
Z,
F,
".",
".,",
";",
"-",
E,
"-",
A
);
date = "2023-10-16 11:25:55 +0000";
familyName = VER;
fontMaster = (
{
iconName = Bold;
id = m01;
metricValues = (
{
over = 16;
pos = 800;
},
{
over = 16;
pos = 700;
},
{
over = 16;
pos = 500;
},
{
over = -16;
},
{
over = -16;
pos = -200;
},
{
}
);
name = Bold;
}
);
glyphs = (
{
glyphname = A;
lastChange = "2023-11-02 08:45:11 +0000";
layers = (
{
layerId = m01;
shapes = (
{
closed = 1;
nodes = (
(92.364,33.24,o),
(177.3,98.08,o),
(182.124,124.533,cs),
(213.937,298.994,o),
(241.91,544.843,o),
(258.48,630.799,cs),
(264.236,660.66,o),
(174.831,576.753,o),
(169.52,549.201,cs),
(154.09,469.157,o),
(128.063,229.006,o),
(97.876,63.467,cs)
);
},
{
closed = 1;
nodes = (
(58.863,142.889,o),
(2.888,-26.811,o),
(34.08,1.982,cs),
(53,20,o),
(87,29,o),
(118,27,cs),
(143,26,o),
(166,18,o),
(178.913,0.427,cs),
(193.978,-19.01,o),
(256.366,150.438,o),
(243.087,167.573,cs),
(227,189,o),
(197,199,o),
(166,198,cs),
(137,197,o),
(106,186,o),
(83.92,166.018,cs)
);
},
{
closed = 1;
nodes = (
(87.033,405.622,o),
(29.519,236.378,o),
(39.516,236.378,cs),
(72.207,236.378,o),
(104.874,236.378,o),
(137.516,236.378,c),
(140.447,234.546,o),
(147.958,237.435,o),
(151.685,235.106,c),
(208.698,235.451,o),
(264.619,234.091,o),
(321.046,234.433,c),
(329.433,237.539,o),
(338.422,234.678,o),
(346.031,237.496,c),
(380.777,237.496,o),
(417.046,237.378,o),
(452.516,237.378,cs),
(465.432,237.378,o),
(524.55,406.622,o),
(513.484,406.622,cs),
(477.621,406.622,o),
(442.556,406.504,o),
(405.969,406.504,c),
(406,407,o),
(377,390,o),
(376.954,389.567,c),
(323.381,389.242,o),
(269.302,387.215,o),
(216.315,386.894,c),
(216,387,o),
(198,406,o),
(198.484,405.622,c),
(165.793,405.622,o),
(133.126,405.622,o),
(100.484,405.622,cs)
);
},
{
closed = 1;
nodes = (
(364.889,731.02,o),
(221.512,629.299,o),
(232.501,608.786,cs),
(248.83,578.306,o),
(288.25,214.977,o),
(313.542,60.127,cs),
(322.644,4.4,o),
(359.8,-8.706,o),
(398.242,3.04,cs),
(432.531,13.517,o),
(553.354,143.059,o),
(513.758,130.96,cs),
(480.2,120.706,o),
(451.005,131.543,o),
(442.458,183.873,cs),
(418.776,328.864,o),
(389.17,685.694,o),
(375.499,711.214,cs)
);
}
);
width = 527;
}
);
unicode = 65;
},
{
glyphname = B;
lastChange = "2023-11-01 23:46:03 +0000";
layers = (
{
layerId = m01;
shapes = (
{
closed = 1;
nodes = (
(304.968,-3.032,o),
(428.07,143.001,o),
(404.831,147.338,cs),
(185.185,188.324,o),
(95.231,194.974,o),
(55.822,167.559,cs),
(33.019,151.696,o),
(-25.914,-19.101,o),
(2.178,0.441,cs),
(8.769,5.026,o),
(86.815,37.676,o),
(285.169,0.662,cs)
);
},
{
closed = 1;
nodes = (
(180.337,627.437,o),
(100.417,575.976,o),
(93.249,535.452,cs),
(74.883,431.614,o),
(47.826,124.699,o),
(46.706,113.105,cs),
(42.998,74.731,o),
(119.728,127.981,o),
(123.294,164.895,cs),
(123.335,165.315,o),
(156.893,494.89,o),
(172.751,584.548,cs)
);
},
{
closed = 1;
nodes = (
(201.092,255.894,o),
(263.561,243.935,o),
(330.442,326.276,cs),
(419,436,o),
(449,518,o),
(442,579,cs),
(435,645,o),
(385,684,o),
(322,702,cs),
(265,719,o),
(198,718,o),
(143.771,705.404,cs),
(121.471,699.973,o),
(28.863,543.932,o),
(56.229,550.596,cs),
(135,570,o),
(202,567,o),
(248,547,cs),
(280,534,o),
(303,512,o),
(312,485,cs),
(326,446,o),
(314,395,o),
(267.558,337.724,cs)
);
},
{
closed = 1;
nodes = (
(121.527,499.711,o),
(59.757,330.647,o),
(78.228,323.428,cs),
(263,251,o),
(332,217,o),
(347,187,cs),
(357,168,o),
(343,150,o),
(323.402,125.188,cs),
(247.445,29.853,o),
(303.42,1.946,o),
(380.598,98.812,cs),
(464,204,o),
(488,271,o),
(472,320,cs),
(445,402,o),
(301,429,o),
(139.792,492.572,cs)
);
}
);
width = 520;
}
);
unicode = 66;
},
{
glyphname = C;
lastChange = "2023-11-01 23:46:13 +0000";
layers = (
{
layerId = m01;
shapes = (
{
closed = 1;
nodes = (
(400.671,661.783,o),
(271.11,596.073,o),
(220.04,542.998,cs),
(67,384,o),
(10,259,o),
(7,168,cs),
(4,66,o),
(69,6,o),
(146,-10,cs),
(206,-22,o),
(273,-7,o),
(319.142,34.963,cs),
(352.104,65.475,o),
(428.858,248.212,o),
(390.858,213.037,cs),
(346,171,o),
(284,153,o),
(233,162,cs),
(192,169,o),
(159,194,o),
(149,237,cs),
(133,308,o),
(177,429,o),
(347.96,607.002,cs)
);
},
{
closed = 1;
nodes = (
(354.25,466.521,o),
(465.133,609.758,o),
(438.225,608.516,cs),
(376.19,605.653,o),
(272.316,678.958,o),
(261.437,713.267,cs),
(253.55,738.14,o),
(141.256,597.779,o),
(148.563,574.733,cs),
(163.684,527.042,o),
(263.81,462.347,o),
(331.775,465.484,cs)
);
}
);
width = 447;
}
);
unicode = 67;
},
{
glyphname = D;
lastChange = "2023-11-01 23:46:16 +0000";
layers = (
{
layerId = m01;
shapes = (
{
closed = 1;
nodes = (
(108.959,735.196,o),
(45.568,567.015,o),
(63.745,556.648,cs),
(271,438,o),
(360,326,o),
(385,241,cs),
(400,191,o),
(392,150,o),
(372.758,125.53,cs),
(322.718,59.436,o),
(354.563,31.918,o),
(406.3,100.254,cs),
(466,179,o),
(488,256,o),
(479,331,cs),
(462,474,o),
(330,609,o),
(126.255,725.332,cs)
);
},
{
closed = 1;
nodes = (
(37.333,51.392,o),
(116.492,39.572,o),
(122.702,92.125,cs),
(147.992,306.161,o),
(199.89,611.775,o),
(182.162,638.368,cs),
(154.38,680.039,o),
(86.067,638.29,o),
(115.838,593.632,cs),
(116.018,593.362,o),
(73.882,360.711,o),
(43.298,101.875,cs)
);
},
{
closed = 1;
nodes = (
(337.072,-3.877,o),
(455.841,146.077,o),
(416.071,150.332,cs),
(191.986,174.304,o),
(123.701,203.197,o),
(78.085,167.018,cs),
(54.389,148.225,o),
(-3.41,-22.276,o),
(25.915,0.982,cs),
(38.299,10.803,o),
(98.014,21.696,o),
(303.929,-0.332,cs)
);
}
);
width = 502;
}
);
unicode = 68;
},
{
glyphname = E;
lastChange = "2023-11-01 23:46:20 +0000";
layers = (
{
layerId = m01;
shapes = (
{
closed = 1;
nodes = (
(173.497,658.632,o),
(98.181,606.258,o),
(95.414,579.513,cs),
(76.134,393.133,o),
(54.905,202.816,o),
(36.959,29.339,cs),
(32.379,-14.937,o),
(52.695,-0.499,o),
(60.512,6.174,cs),
(87.943,29.591,o),
(119.418,35.119,o),
(168.218,19.428,cs),
(235.998,-2.366,o),
(326.57,-17.514,o),
(377.418,25.056,cs),
(400.473,44.358,o),
(446.237,218.097,o),
(418.582,194.944,cs),
(383.43,165.514,o),
(292.06,168.548,o),
(229.782,188.572,cs),
(178.627,205.021,o),
(152.057,206.409,o),
(97.488,159.826,c),
(105.339,152.104,o),
(113.19,144.383,o),
(121.041,136.661,c),
(139.095,311.184,o),
(153.866,468.867,o),
(170.586,630.487,cs)
);
},
{
closed = 1;
nodes = (
(66.231,437.661,o),
(5.981,268.21,o),
(27.276,268.276,cs),
(134.943,268.609,o),
(242.61,268.942,o),
(350.276,269.276,cs),
(370.333,269.338,o),
(431.893,438.793,o),
(409.724,438.724,cs),
(302.057,438.391,o),
(194.39,438.058,o),
(86.724,437.724,cs)
);
},
{
closed = 1;
nodes = (
(437.957,548.871,o),
(484.798,723.005,o),
(458.267,703.483,cs),
(431,683,o),
(344,697,o),
(259,703,cs),
(193,707,o),
(128,707,o),
(95.928,681.226,cs),
(72.639,662.39,o),
(29.078,490.558,o),
(54.072,510.774,cs),
(89,539,o),
(177,531,o),
(258,524,cs),
(326,518,o),
(390,514,o),
(415.733,532.517,cs)
);
}
);
width = 490;
}
);
unicode = 69;
},
{
glyphname = F;
lastChange = "2023-11-01 23:46:31 +0000";
layers = (
{
layerId = m01;
shapes = (
{
closed = 1;
nodes = (
(184.653,748.817,o),
(99.761,633.299,o),
(91.959,554.339,cs),
(74.995,382.665,o),
(60.526,238.569,o),
(45.048,81.939,cs),
(42.587,57.025,o),
(120.672,98.989,o),
(122.952,122.061,cs),
(140.808,302.764,o),
(159.672,496.002,o),
(176.041,661.661,cs)
);
},
{
closed = 1;
nodes = (
(434.549,560.879,o),
(477.748,732.769,o),
(448.872,705.302,cs),
(414.093,672.219,o),
(159.596,715.265,o),
(109.393,689.652,cs),
(86.456,677.949,o),
(31.984,507.785,o),
(56.607,520.348,cs),
(104.404,544.735,o),
(361.907,491.781,o),
(409.128,536.698,cs)
);
},
{
closed = 1;
nodes = (
(362.189,284.558,o),
(409.972,458.61,o),
(383.927,443.917,cs),
(347.753,423.511,o),
(124.727,456.557,o),
(80.927,430.917,cs),
(58.138,417.577,o),
(13.052,245.021,o),
(37.073,259.083,cs),
(75.273,281.443,o),
(298.247,248.489,o),
(340.073,272.083,cs)
);
},
{
closed = 1;
nodes = (
(18.863,142.889,o),
(-37.112,-26.811,o),
(-5.92,1.982,cs),
(13,20,o),
(48,30,o),
(80,27,cs),
(104,26,o),
(126,17,o),
(138.913,0.427,cs),
(153.978,-19.01,o),
(216.366,150.438,o),
(203.087,167.573,cs),
(184,192,o),
(149,201,o),
(114,197,cs),
(88,194,o),
(63,183,o),
(43.92,166.018,cs)
);
}
);
width = 490;
}
);
unicode = 70;
},
{
glyphname = G;
lastChange = "2023-11-01 23:46:41 +0000";
layers = (
{
layerId = m01;
shapes = (
{
closed = 1;
nodes = (
(436.413,659.576,o),
(343.295,642.271,o),
(294.409,599.2,cs),
(-10.257,330.777,o),
(-40.103,100.559,o),
(85.769,9.029,cs),
(159.906,-44.88,o),
(282.85,-24.519,o),
(423.66,239.222,cs),
(475.647,336.594,o),
(414.847,291.38,o),
(364.34,196.778,cs),
(362.444,193.228,o),
(292.508,78.596,o),
(212.231,136.971,cs),
(95.723,221.692,o),
(130.353,389.925,o),
(385.591,614.8,cs)
);
},
{
closed = 1;
nodes = (
(260.675,351.318,o),
(173.177,219.481,o),
(233.782,267.46,cs),
(247,278,o),
(283,284,o),
(306,264,cs),
(319,252,o),
(328,232,o),
(326.424,199.535,cs),
(323.261,134.803,o),
(313.734,71.538,o),
(307.441,5.882,cs),
(301.042,-60.888,o),
(315.83,-79.936,o),
(344.769,-99.971,cs),
(361.027,-111.226,o),
(488.069,16.314,o),
(471.231,27.971,cs),
(448.17,43.936,o),
(442.693,52.913,o),
(448.559,114.118,cs),
(454.664,177.821,o),
(464.405,243.554,o),
(467.576,308.465,cs),
(470,354,o),
(442,394,o),
(404,408,cs),
(376,419,o),
(342,416,o),
(310.218,390.54,cs)
);
},
{
closed = 1;
nodes = (
(411.255,593.045,o),
(464.332,760.529,o),
(432.105,727.227,cs),
(419,714,o),
(378,705,o),
(336,706,cs),
(301,707,o),
(266,715,o),
(247.69,732.008,cs),
(231.937,746.609,o),
(167.979,579.127,o),
(184.31,563.992,cs),
(204,545,o),
(243,536,o),
(281,536,cs),
(323,536,o),
(365,545,o),
(383.895,564.773,cs)
);
}
);
width = 490;
}
);
unicode = 71;
},
{
glyphname = H;
lastChange = "2023-11-01 23:45:31 +0000";
layers = (
{
layerId = m01;
shapes = (
{
closed = 1;
nodes = (
(69.063,437.679,o),
(8.396,268.227,o),
(28.998,268.275,cs),
(173.331,268.608,o),
(317.665,268.942,o),
(461.998,269.275,cs),
(481.491,269.32,o),
(543.496,438.775,o),
(522.002,438.725,cs),
(377.669,438.392,o),
(233.335,438.058,o),
(89.002,437.725,cs)
);
},
{
closed = 1;
nodes = (
(152.647,701.88,o),
(23.146,570.568,o),
(61.911,580.259,cs),
(71.212,582.584,o),
(82.156,563.718,o),
(76.522,488.328,cs),
(67.007,360.984,o),
(57.253,233.657,o),
(47.522,106.328,cs),
(42.403,39.334,o),
(65.951,-6.031,o),
(88.655,-2.117,cs),
(119.309,3.168,o),
(246.442,136.168,o),
(211.345,130.117,cs),
(176.049,124.031,o),
(187.662,154.661,o),
(192.478,217.672,cs),
(202.208,345,o),
(211.962,472.327,o),
(221.478,599.672,cs),
(226.006,660.27,o),
(214.788,717.416,o),
(184.089,709.741,cs)
);
},
{
closed = 1;
nodes = (
(421.647,701.88,o),
(292.146,570.568,o),
(330.911,580.259,cs),
(340.212,582.584,o),
(351.156,563.718,o),
(345.522,488.328,cs),
(336.007,360.984,o),
(326.253,233.657,o),
(316.522,106.328,cs),
(311.403,39.334,o),
(334.951,-6.031,o),
(357.655,-2.117,cs),
(388.309,3.168,o),
(515.442,136.168,o),
(480.345,130.117,cs),
(445.049,124.031,o),
(456.662,154.661,o),
(461.478,217.672,cs),
(471.208,345,o),
(480.962,472.327,o),
(490.478,599.672,cs),
(495.006,660.27,o),
(483.788,717.416,o),
(453.089,709.741,cs)
);
}
);
width = 550;
}
);
unicode = 72;
},
{
glyphname = I;
lastChange = "2023-11-01 23:45:31 +0000";
layers = (
{
layerId = m01;
shapes = (
{
closed = 1;
nodes = (
(130.647,699.88,o),
(1.146,568.568,o),
(39.911,578.259,cs),
(49.212,580.584,o),
(60.19,564.727,o),
(54.522,488.328,cs),
(45.074,360.979,o),
(35.253,233.657,o),
(25.522,106.328,cs),
(20.403,39.334,o),
(43.951,-6.031,o),
(66.655,-2.117,cs),
(97.309,3.168,o),
(224.442,136.168,o),
(189.345,130.117,cs),
(154.049,124.031,o),
(165.662,154.661,o),
(170.478,217.672,cs),
(180.208,345,o),
(190.03,472.322,o),
(199.478,599.672,cs),
(204.047,661.255,o),
(192.788,715.416,o),
(162.089,707.741,cs)
);
}
);
width = 225;
}
);
unicode = 73;
},
{
glyphname = J;
lastChange = "2023-11-01 23:45:31 +0000";
layers = (
{
layerId = m01;
shapes = (
{
closed = 1;
nodes = (
(184.17,-20.479,o),
(296.406,121.122,o),
(291.515,143.946,cs),
(281.809,189.244,o),
(204.514,248.145,o),
(166.556,250.518,cs),
(146.427,251.776,o),
(34.321,109.052,o),
(59.444,107.482,cs),
(85.486,105.855,o),
(170.191,44.756,o),
(178.485,6.054,cs)
);
},
{
closed = 1;
nodes = (
(401.647,701.88,o),
(272.146,570.568,o),
(310.911,580.259,cs),
(320.212,582.584,o),
(333.398,563.069,o),
(325.522,488.328,cs),
(316.071,398.639,o),
(306.184,308.995,o),
(296.522,219.328,cs),
(283.285,96.479,o),
(281.311,120.487,o),
(278.911,118.627,cs),
(208.25,63.865,o),
(135.809,-40.069,o),
(215.089,21.373,cs),
(436.145,192.691,o),
(436.12,280.953,o),
(441.478,330.672,cs),
(451.139,420.339,o),
(461.027,509.982,o),
(470.478,599.672,cs),
(476.929,660.897,o),
(463.788,717.416,o),
(433.089,709.741,cs)
);
}
);
width = 520;
}
);
unicode = 74;
},
{
glyphname = K;
lastChange = "2023-11-01 23:46:57 +0000";
layers = (
{
layerId = m01;
shapes = (
{
closed = 1;
nodes = (
(257.659,484.343,o),
(138.319,349.098,o),
(156.386,338.774,cs),
(166,333,o),
(196,242,o),
(234,156,cs),
(271,72,o),
(316,-8,o),
(358.52,0.583,cs),
(385.729,5.815,o),
(501.556,143.586,o),
(469.48,137.417,cs),
(439,132,o),
(402,193,o),
(368,265,cs),
(325,358,o),
(287,468,o),
(273.614,475.226,cs)
);
},
{
closed = 1;
nodes = (
(132.141,720.886,o),
(0.55,590.595,o),
(16.788,578.417,cs),
(21.547,574.848,o),
(39.812,550.841,o),
(35.522,496.328,cs),
(25.61,370.347,o),
(16.202,244.327,o),
(6.522,118.328,cs),
(1.548,53.574,o),
(1.522,-0.324,o),
(46.525,-0.324,cs),
(73.425,-0.324,o),
(203.969,152.324,o),
(171.475,152.324,cs),
(148.393,152.324,o),
(146.501,164.894,o),
(151.478,229.672,cs),
(161.157,355.671,o),
(170.565,481.691,o),
(180.478,607.672,cs),
(185.947,677.178,o),
(158.453,701.152,o),
(147.212,709.583,cs)
);
},
{
closed = 1;
nodes = (
(472.02,571.849,o),
(526.481,740.152,o),
(494.92,711.018,cs),
(475,693,o),
(439,683,o),
(407,686,cs),
(384,688,o),
(363,696,o),
(350.087,712.573,cs),
(335.732,731.095,o),
(271.215,564.393,o),
(285.913,545.427,cs),
(302,525,o),
(329,515,o),
(358,515,cs),
(389,515,o),
(422,526,o),
(445.08,546.982,cs)
);
},
{
closed = 1;
nodes = (
(463.443,608.06,o),
(368.614,614.538,o),
(352.153,595.882,cs),
(337.153,578.882,o),
(43.153,250.646,o),
(43.153,250.646,cs),
(25.321,230.738,o),
(121.096,225.296,o),
(136.847,242.882,cs),
(144.512,251.439,o),
(423.346,562.616,o),
(445.847,588.118,cs)
);
}
);
width = 502;
}
);
unicode = 75;
},
{
glyphname = L;
lastChange = "2023-11-01 23:45:31 +0000";
layers = (
{
layerId = m01;
shapes = (
{
closed = 1;
nodes = (
(36.246,91.886,o),
(-15.171,-42.624,o),
(31.122,11.199,cs),
(58.056,42.514,o),
(109.637,59.519,o),
(156.537,36.549,cs),
(198.258,16.114,o),
(261.374,-19.009,o),
(312.543,17.699,cs),
(338.034,35.986,o),
(395.013,205.504,o),
(365.457,184.301,cs),
(324.668,155.039,o),
(291.75,169.72,o),
(251.463,189.451,cs),
(195.966,216.633,o),
(138.099,210.306,o),
(74.878,136.801,cs)
);
},
{
closed = 1;
nodes = (
(160.056,726.462,o),
(29.699,602.655,o),
(39.803,584.131,cs),
(56.737,553.085,o),
(58.276,547.616,o),
(53.441,489.882,cs),
(40.362,333.709,o),
(28.809,177.373,o),
(15.454,21.221,cs),
(12.277,-15.932,o),
(151.756,122.164,o),
(154.546,154.779,cs),
(167.191,302.627,o),
(182.175,450.246,o),
(194.559,598.118,cs),
(199.939,662.366,o),
(189.263,672.915,o),
(170.197,707.869,cs)
);
}
);
width = 430;
}
);
unicode = 76;
},
{
glyphname = M;
lastChange = "2023-11-01 23:47:10 +0000";
layers = (
{
layerId = m01;
shapes = (
{
closed = 1;
nodes = (
(290.596,722.953,o),
(169.623,603.713,o),
(180.562,586.303,cs),
(250.537,474.935,o),
(281.57,52.047,o),
(336.896,0.896,cs),
(351.005,-12.149,o),
(471.751,107.563,o),
(457.104,121.104,cs),
(406.43,167.953,o),
(373.463,591.065,o),
(301.438,705.697,cs)
);
},
{
closed = 1;
nodes = (
(64.984,67.071,o),
(152.78,108.933,o),
(161.384,134.409,cs),
(239.923,366.967,o),
(244.327,645.578,o),
(244.438,647.863,cs),
(245.624,672.133,o),
(172.692,607.28,o),
(171.562,584.137,cs),
(171.045,573.563,o),
(154.751,332.874,o),
(74.616,95.591,cs)
);
},
{
closed = 1;
nodes = (
(330.64,129.97,o),
(423.858,160.82,o),
(433.112,184.171,cs),
(520.811,405.458,o),
(570.929,612.741,o),
(573.73,633.747,cs),
(577.887,664.93,o),
(498.346,612.822,o),
(494.27,582.253,cs),
(493.071,573.259,o),
(425.189,368.542,o),
(340.888,155.829,cs)
);
},
{
closed = 1;
nodes = (
(627.504,732.535,o),
(498.528,608.545,o),
(499.485,580.803,cs),
(501,522,o),
(502,370,o),
(512,235,cs),
(521,111,o),
(539,3,o),
(574.295,0.977,cs),
(597.676,-0.399,o),
(717.23,121.404,o),
(689.705,123.023,cs),
(664,125,o),
(650,197,o),
(642,292,cs),
(629,436,o),
(631,630,o),
(628.515,703.197,cs)
);
},
{
closed = 1;
nodes = (
(39.193,142.594,o),
(-16.733,-27.21,o),
(14.08,1.982,cs),
(33,20,o),
(68,29,o),
(101,27,cs),
(127,26,o),
(150,17,o),
(162.913,0.427,cs),
(177.691,-19.276,o),
(240.069,150.263,o),
(227.087,167.573,cs),
(212,188,o),
(182,198,o),
(151,198,cs),
(119,197,o),
(86,187,o),
(63.92,166.018,cs)
);
}
);
width = 699;
}
);
unicode = 77;
},
{
glyphname = N;
lastChange = "2023-11-01 23:47:16 +0000";
layers = (
{
layerId = m01;
shapes = (
{
closed = 1;
nodes = (
(225.309,725.859,o),
(104.235,606.783,o),
(114.423,588.533,cs),
(205.308,425.74,o),
(304.833,129.186,o),
(407.72,2.09,cs),
(420.22,-13.351,o),
(540.686,106.584,o),
(528.28,121.91,cs),
(427.167,246.814,o),
(326.692,544.26,o),
(235.577,707.467,cs)
);
},
{
closed = 1;
nodes = (
(79.605,95.379,o),
(158.37,101.145,o),
(166.179,121.357,cs),
(185.928,172.472,o),
(204.632,590.147,o),
(204.823,593.182,cs),
(206.388,617.973,o),
(136.536,580.349,o),
(135.177,558.818,cs),
(134.307,545.041,o),
(107.075,166.477,o),
(87.821,116.643,cs)
);
},
{
closed = 1;
nodes = (
(38.863,144.889,o),
(-17.112,-24.811,o),
(14.08,3.982,cs),
(32,21,o),
(64,30,o),
(95,30,cs),
(120,29,o),
(145,20,o),
(158.913,2.427,cs),
(173.978,-17.01,o),
(236.366,152.438,o),
(223.087,169.573,cs),
(206,191,o),
(176,201,o),
(145,200,cs),
(116,198,o),
(85,188,o),
(63.92,168.018,cs)
);
},
{
closed = 1;
nodes = (
(580.02,569.849,o),
(634.481,738.152,o),
(602.92,709.018,cs),
(584,691,o),
(549,682,o),
(517,684,cs),
(493,685,o),
(471,694,o),
(458.087,710.573,cs),
(443.732,729.095,o),
(379.215,562.393,o),
(393.913,543.427,cs),
(412,520,o),
(447,510,o),
(481,514,cs),
(508,517,o),
(534,527,o),
(553.08,544.982,cs)
);
},
{
closed = 1;
nodes = (
(400.857,77.52,o),
(482.467,104.141,o),
(491.331,127.084,cs),
(516.833,193.088,o),
(529.309,570.143,o),
(530.705,591.643,cs),
(532.27,615.747,o),
(460.701,582.016,o),
(459.295,560.357,cs),
(459.265,559.893,o),
(426.381,143.582,o),
(410.669,102.916,cs)
);
}
);
width = 617;
}
);
unicode = 78;
},
{
glyphname = O;
lastChange = "2023-11-01 23:47:31 +0000";
layers = (
{
background = {
shapes = (
{
closed = 1;
nodes = (
);
}
);
};
layerId = m01;
shapes = (
{
closed = 1;
nodes = (
(110.083,7.916,o),
(116.119,-50.689,o),
(209.464,24.472,cs),
(301,98,o),
(408,221,o),
(404,386,cs),
(402,482,o),
(363,592,o),
(263.308,714.615,cs),
(249.338,731.872,o),
(162.376,567.069,o),
(176.692,549.385,cs),
(250,459,o),
(286,383,o),
(299,321,cs),
(334,154,o),
(204,83,o),
(196.536,77.528,cs)
);
},
{
closed = 1;
nodes = (
(276.223,678.65,o),
(288.685,765.227,o),
(218.228,671.284,cs),
(162,596,o),
(-27,321,o),
(-14,141,cs),
(-8,66,o),
(33,7,o),
(132.902,-13.599,cs),
(169.115,-21.025,o),
(300.938,101.02,o),
(259.098,109.599,cs),
(169,128,o),
(131,182,o),
(121,248,cs),
(99,392,o),
(211,592,o),
(211.772,592.716,cs)
);
}
);
width = 426;
}
);
unicode = 79;
},
{
glyphname = P;
lastChange = "2023-11-01 23:48:17 +0000";
layers = (
{
layerId = m01;
shapes = (
{
closed = 1;
nodes = (
(209.36,230.317,o),
(276.376,224.036,o),
(341.078,307.595,cs),
(465,468,o),
(470,572,o),
(423,634,cs),
(368,704,o),
(244,718,o),
(151.771,695.404,cs),
(129.471,689.973,o),
(36.863,533.932,o),
(64.229,540.596,cs),
(185,570,o),
(272,549,o),
(308,498,cs),
(339,454,o),
(331,388,o),
(272.922,312.405,cs)
);
},
{
closed = 1;
nodes = (
(273.874,216.133,o),
(391.329,365.803,o),
(341.873,371.26,cs),
(190.396,387.975,o),
(124.521,407.263,o),
(92.521,394.463,cs),
(70.783,385.768,o),
(12.281,216.257,o),
(35.479,225.537,cs),
(43.479,228.737,o),
(93.604,236.025,o),
(232.127,220.74,cs)
);
},
{
closed = 1;
nodes = (
(236.742,630.258,o),
(95.467,519.913,o),
(93.441,492.882,cs),
(83.775,363.882,o),
(74.312,234.866,o),
(64.441,105.882,cs),
(59.533,41.749,o),
(73.115,-0.515,o),
(103.803,-0.515,cs),
(127.598,-0.515,o),
(254.621,128.515,o),
(226.197,128.515,cs),
(204.886,128.515,o),
(200.668,150.215,o),
(205.559,214.118,cs),
(215.43,343.102,o),
(224.892,472.118,o),
(234.559,601.118,cs)
);
}
);
width = 480;
}
);
unicode = 80;
},
{
glyphname = Q;
lastChange = "2023-11-01 23:48:29 +0000";
layers = (
{
layerId = m01;
shapes = (
{
closed = 1;
nodes = (
(158.889,15.06,o),
(176.656,-56.773,o),
(271.311,16.746,cs),
(358,84,o),
(506,224,o),
(491,413,cs),
(484,503,o),
(439,605,o),
(334.113,714.827,cs),
(319.325,730.305,o),
(232.637,565.136,o),
(247.887,549.173,cs),
(346,446,o),
(391,368,o),
(404,308,cs),
(432,175,o),
(303,127,o),
(246.689,83.254,cs)
);
},
{
closed = 1;
nodes = (
(329.702,648.391,o),
(367.726,765.913,o),
(299.745,686.967,cs),
(235,612,o),
(14,332,o),
(26,147,cs),
(32,68,o),
(79,7,o),
(199.433,-13.691,cs),
(236.676,-20.147,o),
(367.906,102.179,o),
(324.567,109.691,cs),
(214,129,o),
(169,185,o),
(160,253,cs),
(140,391,o),
(268,576,o),
(268.255,577.033,cs)
);
},
{
closed = 1;
nodes = (
(312.39,335.33,o),
(268.591,289.678,o),
(270.81,273.404,cs),
(278,218,o),
(315,103,o),
(373,35,cs),
(407,-6,o),
(449,-29,o),
(495.3,-12.74,cs),
(519.748,-4.04,o),
(592.281,197.506,o),
(562.994,187.085,cs),
(516,170,o),
(459,178,o),
(411,202,cs),
(361,227,o),
(321,270,o),
(314.672,318.596,cs)
);
}
);
width = 600;
}
);
unicode = 81;
},
{
glyphname = R;
lastChange = "2023-11-01 23:48:40 +0000";
layers = (
{
layerId = m01;
shapes = (
{
closed = 1;
nodes = (
(213.5,621.127,o),
(143.162,470.346,o),
(144.871,421.485,cs),
(148,338,o),
(233,209,o),
(320,115,cs),
(393,36,o),
(468,-17,o),
(496.429,4.74,cs),
(521.063,23.509,o),
(578.258,193.117,o),
(549.571,171.26,cs),
(523,151,o),
(460,196,o),
(396,264,cs),
(308,359,o),
(218,498,o),
(215.129,574.515,cs)
);
},
{
closed = 1;
nodes = (
(53.863,142.889,o),
(-2.112,-26.811,o),
(29.08,1.982,cs),
(48,20,o),
(82,29,o),
(114,27,cs),
(138,26,o),
(161,17,o),
(173.913,0.427,cs),
(188.978,-19.01,o),
(251.366,150.438,o),
(238.087,167.573,cs),
(222,189,o),
(192,199,o),
(161,198,cs),
(131,197,o),
(101,186,o),
(78.92,166.018,cs)
);
},
{
closed = 1;
nodes = (
(213.032,642.139,o),
(120.327,559.899,o),
(115.762,462.325,cs),
(107.541,286.601,o),
(113.89,299.631,o),
(93.59,62.799,cs),
(89.687,17.261,o),
(168.887,64.095,o),
(172.41,105.201,cs),
(194.11,358.369,o),
(200.459,373.399,o),
(208.238,539.675,cs)
);
},
{
closed = 1;
nodes = (
(209.43,236.078,o),
(268.79,220.325,o),
(336.636,302.071,cs),
(443,431,o),
(470,523,o),
(453,587,cs),
(423,698,o),
(260,722,o),
(151.771,695.404,cs),
(129.471,689.973,o),
(36.863,533.932,o),
(64.229,540.596,cs),
(201,574,o),
(304,541,o),
(327,470,cs),
(340,430,o),
(327,377,o),
(277.364,317.929,cs)
);
}
);
width = 574;
}
);
unicode = 82;
},
{
glyphname = S;
lastChange = "2023-11-01 23:48:48 +0000";
layers = (
{
layerId = m01;
shapes = (
{
closed = 1;
nodes = (
(270.685,417.929,o),
(395.219,524.62,o),
(420.519,573.888,cs),
(447,625,o),
(416,709,o),
(341,715,cs),
(306,718,o),
(261,703,o),
(208.62,659.522,cs),
(139.739,602.678,o),
(99.401,525.777,o),
(175.38,588.478,cs),
(197,606,o),
(239,593,o),
(269,567,cs),
(298,542,o),
(316,506,o),
(297.481,470.112,cs)
);
},
{
closed = 1;
nodes = (
(209.539,663.005,o),
(84.212,551.221,o),
(66.019,509.378,cs),
(22.202,408.599,o),
(98.537,358.638,o),
(168.189,294.189,cs),
(233.017,234.203,o),
(308.187,187.68,o),
(265.912,86.039,cs),
(250.534,49.067,o),
(375.984,163.243,o),
(392.088,201.961,cs),
(443.813,326.32,o),
(354.839,355.641,o),
(289.811,415.811,cs),
(221.309,479.196,o),
(155.798,539.401,o),
(191.981,622.622,cs)
);
},
{
closed = 1;
nodes = (
(160.818,273.502,o),
(33.11,159.121,o),
(16.021,116.968,cs),
(2,82,o),
(19,28,o),
(60,1,cs),
(101,-25,o),
(163,-26,o),
(241.332,39.953,cs),
(310.62,98.697,o),
(345.843,171.478,o),
(268.668,106.047,cs),
(255,94,o),
(210,107,o),
(177,134,cs),
(148,157,o),
(127,191,o),
(141.979,227.032,cs)
);
}
);
width = 440;
}
);
unicode = 83;
},
{
glyphname = T;
lastChange = "2023-11-01 23:48:52 +0000";
layers = (
{
background = {
shapes = (
{
closed = 0;
nodes = (
(379,614,l,{
"Letterink-NibData" = {
AngleInDegrees = "22";
MainAxisWidth = "150";
MinorAxisWidth = "37";
ValidForParentMainAxisWidth = "30";
ValidForParentMinorAxisWidth = "15";
};
}),
(319,585,o),
(84,635,o),
(29,587,c,{
"Letterink-NibData" = {
AngleInDegrees = "29";
MainAxisWidth = "150";
MinorAxisWidth = "15";
ValidForParentMainAxisWidth = "30";
ValidForParentMinorAxisWidth = "15";
};
})
);
},
{
closed = 0;
nodes = (
(252,592,l,{
"Letterink-NibData" = {
MainAxisWidth = "60";
MinorAxisWidth = "35";
ValidForParentMainAxisWidth = "30";
ValidForParentMinorAxisWidth = "15";
};
}),
(149,459,o),
(106,314,o),
(100,237,cs,{
"Letterink-NibData" = {
MainAxisWidth = "150";
MinorAxisWidth = "25";
ValidForParentMainAxisWidth = "30";
ValidForParentMinorAxisWidth = "15";
};
}),
(91,130,o),
(161,52,o),
(237,60,c,{
"Letterink-NibData" = {
AngleInDegrees = "-6";
MainAxisWidth = "148";
MinorAxisWidth = "44";
ValidForParentMainAxisWidth = "30";
ValidForParentMinorAxisWidth = "15";
};
}),
(254,63,o),
(327,134,o),
(332,140,cs,{
"Letterink-NibData" = {
AngleInDegrees = "107";
MainAxisWidth = "5";
MinorAxisWidth = "-2";
ValidForParentMainAxisWidth = "30";
ValidForParentMinorAxisWidth = "15";
};
})
);
}
);
};
layerId = m01;
shapes = (
{
closed = 1;
nodes = (
(392.005,554.946,o),
(452.092,722.668,o),
(405.049,699.93,cs),
(378,687,o),
(298,695,o),
(220,699,cs),
(148,702,o),
(78,701,o),
(49.582,675.944,cs),
(26.07,655.424,o),
(-16.966,483.903,o),
(8.418,506.056,cs),
(36,530,o),
(121,526,o),
(201,524,cs),
(264,522,o),
(323,522,o),
(352.951,536.07,cs)
);
},
{
closed = 1;
nodes = (
(312.349,628.376,o),
(261.445,645.746,o),
(227.618,602.067,cs),
(104.108,442.583,o),
(42.753,261.512,o),
(34.869,164.189,cs),
(25.844,52.802,o),
(83.441,-23.777,o),
(173.275,-14.321,cs),
(200.592,-11.445,o),
(335.515,101.773,o),
(302.725,98.321,cs),
(240.559,91.777,o),
(156.814,177.144,o),
(165.131,279.811,cs),
(169.72,336.449,o),
(193.892,475.417,o),
(276.382,581.933,cs)
);
}
);
width = 422;
}
);
unicode = 84;
},
{
glyphname = U;
lastChange = "2023-11-01 23:45:31 +0000";
layers = (
{
layerId = m01;
shapes = (
{
closed = 1;
nodes = (
(385.725,375.882,o),
(346.153,381.899,o),
(343.11,355.091,cs),
(315.726,113.851,o),
(243.566,124.428,o),
(232.141,123.556,cs),
(183.168,119.815,o),
(171.302,202.617,o),
(180.354,292.662,cs),
(190.506,393.647,o),
(200.132,494.685,o),
(210.354,595.662,cs),
(217.247,663.755,o),
(184.616,722.925,o),
(133.247,705.802,cs),
(100.394,694.851,o),
(-21.627,564.738,o),
(18.753,578.198,cs),
(63.384,593.075,o),
(70.498,550.271,o),
(65.646,502.338,cs),
(55.424,401.36,o),
(45.798,300.323,o),
(35.646,199.338,cs),
(25.222,95.644,o),
(87.841,-22.889,o),
(183.859,-15.556,cs),
(307.751,-6.093,o),
(368.024,219.944,o),
(382.89,350.909,cs)
);
},
{
closed = 1;
nodes = (
(450.317,-10.828,o),
(564.646,108.315,o),
(532.455,104.227,cs),
(475.584,97.005,o),
(453.853,199.677,o),
(463.354,292.662,cs),
(473.674,393.664,o),
(483.964,494.668,o),
(494.354,595.662,cs),
(501.357,663.737,o),
(467.644,722.935,o),
(416.247,705.802,cs),
(383.394,694.851,o),
(261.373,564.738,o),
(301.753,578.198,cs),
(346.356,593.065,o),
(354.577,550.27,o),
(349.646,502.338,cs),
(339.256,401.344,o),
(328.966,300.339,o),
(318.646,199.338,cs),
(307.305,88.346,o),
(352.192,-23.288,o),
(423.545,-14.227,cs)
);
}
);
width = 550;
}
);
unicode = 85;
},
{
glyphname = V;
lastChange = "2023-11-01 23:49:03 +0000";
layers = (
{
layerId = m01;
shapes = (
{
closed = 1;
nodes = (
(515.713,645.654,o),
(432.957,627.334,o),
(427.038,607.253,cs),
(368.36,408.167,o),
(273.132,101.551,o),
(259.16,13.065,cs),
(255.867,-7.793,o),
(358.002,72.964,o),
(360.84,90.935,cs),
(370.868,154.449,o),
(455.64,441.833,o),
(508.962,622.747,cs)
);
},
{
closed = 1;
nodes = (
(550.02,571.849,o),
(604.481,740.152,o),
(572.92,711.018,cs),
(553,693,o),
(518,683,o),
(486,686,cs),
(462,688,o),
(441,696,o),
(428.087,712.573,cs),
(413.732,731.095,o),
(349.215,564.393,o),
(363.913,545.427,cs),
(381,524,o),
(412,514,o),
(444,515,cs),
(473,517,o),
(502,528,o),
(523.08,546.982,cs)
);
},
{
closed = 1;
nodes = (
(252.318,-15.972,o),
(405.44,101.972,o),
(350.459,101.972,cs),
(297.64,101.972,o),
(262.292,476.257,o),
(232.4,635.182,cs),
(222.273,689.024,o),
(175.204,721.485,o),
(140.758,710.96,cs),
(108.886,701.221,o),
(-13.848,571.096,o),
(25.242,583.04,cs),
(62.796,594.515,o),
(93.788,562.987,o),
(103.6,510.818,cs),
(127.872,381.774,o),
(130.36,-15.972,o),
(207.541,-15.972,cs)
);
}
);
width = 600;
}
);
unicode = 86;
},
{
glyphname = W;
lastChange = "2023-11-01 23:49:09 +0000";
layers = (
{
layerId = m01;
shapes = (
{
closed = 1;
nodes = (
(367.49,-23.089,o),
(487.893,97.057,o),
(477.438,113.697,cs),
(407.459,225.071,o),
(439.456,647.006,o),
(383.104,699.104,cs),
(369.427,711.749,o),
(247.925,592.737,o),
(262.896,578.896,cs),
(312.544,532.994,o),
(284.541,108.929,o),
(356.562,-5.697,cs)
);
},
{
closed = 1;
nodes = (
(645.727,629.84,o),
(555.801,592.059,o),
(547.405,567.2,cs),
(468.337,333.076,o),
(396.117,45.167,o),
(394.586,39.438,cs),
(385.916,6.991,o),
(478.225,85.656,o),
(485.414,112.562,cs),
(488.305,123.381,o),
(556.46,365.517,o),
(636.595,602.8,cs)
);
},
{
closed = 1;
nodes = (
(410.044,635.759,o),
(319.27,595.953,o),
(310.526,572.542,cs),
(270.536,465.472,o),
(185.523,91.68,o),
(185.163,91.23,cs),
(135.964,29.73,o),
(197.774,53.942,o),
(244.837,112.77,cs),
(280.475,157.319,o),
(372.525,535.303,o),
(399.474,607.458,cs)
);
},
{
closed = 1;
nodes = (
(119.415,-26.417,o),
(247.235,100.865,o),
(240.322,120.473,cs),
(218,183,o),
(213,298,o),
(207,410,cs),
(198,567,o),
(187,717,o),
(121.885,697.44,cs),
(90.098,687.709,o),
(-24.804,564.646,o),
(14.115,576.56,cs),
(64,592,o),
(71,474,o),
(75,334,cs),
(80,214,o),
(83,77,o),
(111.678,-4.473,cs)
);
},
{
closed = 1;
nodes = (
(682.675,559.176,o),
(737.106,727.563,o),
(705.92,698.018,cs),
(688,681,o),
(653,671,o),
(621,673,cs),
(595,674,o),
(570,682,o),
(557.087,699.573,cs),
(543.019,718.329,o),
(478.511,551.63,o),
(492.913,532.427,cs),
(509,511,o),
(541,501,o),
(574,502,cs),
(604,504,o),
(636,514,o),
(656.08,533.982,cs)
);
}
);
width = 687;
}
);
unicode = 87;
},
{
glyphname = X;
lastChange = "2023-11-01 23:49:16 +0000";
layers = (
{
layerId = m01;
shapes = (
{
closed = 1;
nodes = (
(521.803,612.386,o),
(426.697,595.509,o),
(411.071,572.481,cs),
(391.316,543.368,o),
(141.101,130.07,o),
(140.974,129.861,cs),
(126.144,105.372,o),
(222.505,124.49,o),
(235.616,146.139,cs),
(248.54,167.481,o),
(474.682,542.944,o),
(504.929,587.519,cs)
);
},
{
closed = 1;
nodes = (
(441.986,3.956,o),
(550.806,147.49,o),
(520.949,142.447,cs),
(454.661,131.251,o),
(283.682,716.808,o),
(205.818,698.291,cs),
(179.872,692.121,o),
(70.564,548.153,o),
(102.336,555.709,cs),
(167.447,571.192,o),
(340.106,-13.251,o),
(415.918,-0.447,cs)
);
},
{
closed = 1;
nodes = (
(130.95,-47.056,o),
(244.409,90.963,o),
(245.682,122.026,cs),
(247,146,o),
(233,175,o),
(214,200,cs),
(195,225,o),
(171,246,o),
(152.332,250.392,cs),
(134.29,255.156,o),
(22.012,113.263,o),
(43.432,107.608,cs),
(55,104,o),
(77,85,o),
(96,61,cs),
(116,36,o),
(133,7,o),
(132.385,-12.026,cs)
);
},
{
closed = 1;
nodes = (
(499.963,448.523,o),
(611.181,590.695,o),
(589.603,596.392,cs),
(575,600,o),
(551,624,o),
(531,650,cs),
(514,674,o),
(500,700,o),
(500.65,716.026,cs),
(502.015,749.342,o),
(388.767,616.465,o),
(387.354,581.974,cs),
(386,558,o),
(399,531,o),
(416,508,cs),
(436,480,o),
(463,458,o),
(480.703,453.608,cs)
);
}
);
width = 609;
}
);
unicode = 88;
},
{
glyphname = Y;
lastChange = "2023-11-01 23:49:26 +0000";
layers = (
{
layerId = m01;
shapes = (
{
closed = 1;
nodes = (
(551.919,673.592,o),
(463.509,656.178,o),
(444.912,596.667,cs),
(440.972,584.058,o),
(208.131,127.519,o),
(200.913,113.349,cs),
(170.062,52.787,o),
(250.466,50.539,o),
(281.087,110.651,cs),
(282.688,113.795,o),
(522.382,579.073,o),
(533.088,613.333,cs)
);
},
{
closed = 1;
nodes = (
(569.02,571.849,o),
(623.481,740.152,o),
(591.92,711.018,cs),
(573,694,o),
(540,684,o),
(510,686,cs),
(485,687,o),
(461,695,o),
(447.087,712.573,cs),
(432.732,731.095,o),
(368.215,564.393,o),
(382.913,545.427,cs),
(397,527,o),
(422,517,o),
(448,516,cs),
(481,514,o),
(518,524,o),
(542.08,546.982,cs)
);
},
{
closed = 1;
nodes = (
(301.339,328.659,o),
(416.171,456.899,o),
(367.824,434.452,cs),
(338,421,o),
(311,473,o),
(283,537,cs),
(246,622,o),
(208,726,o),
(159.719,709.626,cs),
(125.729,697.842,o),
(4.448,567.872,o),
(46.281,582.374,cs),
(85,596,o),
(117,489,o),
(156,404,cs),
(185,341,o),
(218,290,o),
(260.176,309.548,cs)
);
},
{
closed = 1;
nodes = (
(151.863,142.889,o),
(95.888,-26.811,o),
(127.08,1.982,cs),
(144,18,o),
(172,27,o),
(200,28,cs),
(229,28,o),
(257,20,o),
(271.913,0.427,cs),
(286.978,-19.01,o),
(349.366,150.438,o),
(336.087,167.573,cs),
(320,188,o),
(292,198,o),
(262,198,cs),
(232,198,o),
(199,187,o),
(176.92,166.018,cs)
);
}
);
width = 600;
}
);
unicode = 89;
},
{
glyphname = Z;
lastChange = "2023-11-01 23:49:35 +0000";
layers = (
{
layerId = m01;
shapes = (
{
closed = 1;
nodes = (
(20.357,122.064,o),
(-26.766,-40.27,o),
(27.512,6.174,cs),
(69,42,o),
(132,22,o),
(196,8,cs),
(252,-4,o),
(308,-12,o),
(352.418,25.056,cs),
(375.476,44.355,o),
(421.24,218.093,o),
(393.582,194.944,cs),
(351,159,o),
(300,173,o),
(245,185,cs),
(187,199,o),
(125,211,o),
(64.488,159.826,cs)
);
},
{
closed = 1;
nodes = (
(104.606,681.124,o),
(46.096,511.638,o),
(69.479,520.537,cs),
(126,542,o),
(179,538,o),
(234,534,cs),
(286,529,o),
(340,524,o),
(397.165,540.433,cs),
(418.043,546.424,o),
(479.472,716.637,o),
(454.835,709.567,cs),
(387,690,o),
(324,702,o),
(260,706,cs),
(217,709,o),
(173,707,o),
(126.521,689.463,cs)
);
},
{
closed = 1;
nodes = (
(430.845,603.968,o),
(332.968,589.81,o),
(324.274,568.444,cs),
(266.116,425.514,o),
(79.138,211.257,o),
(44.075,99.88,cs),
(37.151,77.886,o),
(135.536,93.825,o),
(141.925,114.12,cs),
(174.862,218.743,o),
(361.884,434.486,o),
(421.726,581.556,cs)
);
},
{
closed = 1;
nodes = (
(136.148,454.363,o),
(77.174,284.855,o),
(100.182,291.433,cs),
(143.075,303.695,o),
(256.311,243.09,o),
(308.547,251.302,cs),
(328.624,254.458,o),
(390.495,424.325,o),
(367.42,420.698,cs),
(317.879,412.91,o),
(205.908,474.305,o),
(157.851,460.567,cs)
);
}
);
width = 462;
}
);
unicode = 90;
},
{
glyphname = a;
lastChange = "2023-11-01 23:45:31 +0000";
layers = (
{
layerId = m01;
shapes = (
{
closed = 1;
nodes = (
(30.833,-27.718,o),
(110.026,18.221,o),
(114.351,59.615,cs),
(127.619,186.613,o),
(152.448,332.261,o),
(160.228,370.177,cs),
(186.78,499.594,o),
(207.549,556.857,o),
(230.071,560.919,cs),
(283.678,570.587,o),
(291.752,499.413,o),
(280.721,409.037,cs),
(268.693,310.496,o),
(259.169,211.652,o),
(247.721,113.037,cs),
(240.153,47.841,o),
(251.36,8.64,o),
(285.818,0.6,cs),
(306.606,-4.25,o),
(434.042,123.832,o),
(410.182,129.4,cs),
(384.64,135.36,o),
(386.374,154.098,o),
(392.279,204.963,cs),
(403.727,303.577,o),
(413.252,402.421,o),
(425.279,500.963,cs),
(437.744,603.083,o),
(387.033,732.037,o),
(281.929,713.081,cs),
(132.661,686.16,o),
(98.148,465.637,o),
(81.772,385.823,cs),
(74.336,349.578,o),
(50.381,159.387,o),
(35.649,18.385,cs)
);
},
{
closed = 1;
nodes = (
(50.063,424.677,o),
(-10.604,255.225,o),
(9.998,255.275,cs),
(147.665,255.608,o),
(285.331,255.942,o),
(422.998,256.275,cs),
(442.491,256.322,o),
(504.496,425.777,o),
(483.002,425.725,cs),
(345.335,425.392,o),
(207.669,425.058,o),
(70.002,424.725,cs)
);
}
);
width = 493;
}
);
unicode = 97;
},
{
glyphname = b;
lastChange = "2023-11-01 23:49:49 +0000";
layers = (
{
layerId = m01;
shapes = (
{
closed = 1;
nodes = (
(42.07,206.814,o),
(55.049,101.027,o),
(74.921,184.092,cs),
(95,270,o),
(213,316,o),
(295,298,cs),
(358,284,o),
(400,233,o),
(362.527,132.716,cs),
(341.203,76.309,o),
(451.159,195.549,o),
(471.473,249.284,cs),
(524,388,o),
(422,463,o),
(305,462,cs),
(202,462,o),
(89,403,o),
(59.079,277.908,cs)
);
},
{
closed = 1;
nodes = (
(156.212,377.342,o),
(145.241,285.294,o),
(226.097,344.603,cs),
(385,462,o),
(438,561,o),
(433,627,cs),
(427,688,o),
(373,721,o),
(305,715,cs),
(220,706,o),
(113,634,o),
(62.225,472.714,cs),
(27.659,364.076,o),
(105.593,341.571,o),
(141.775,455.286,cs),
(163,523,o),
(227,555,o),
(270,556,cs),
(295,556,o),
(313,545,o),
(310,523,cs),
(307,502,o),
(284,471,o),
(229.903,431.397,cs)
);
},
{
closed = 1;
nodes = (
(153.91,497.121,o),
(77.615,521.403,o),
(63.363,469.353,cs),
(38.434,378.307,o),
(29.068,219.106,o),
(29.068,145.29,cs),
(29.068,91.905,o),
(114.932,98.832,o),
(114.932,152.71,cs),
(114.932,212.894,o),
(119.566,371.693,o),
(140.637,448.647,cs)
);
},
{
closed = 1;
nodes = (
(500.265,361.815,o),
(456.885,323.254,o),
(430.463,228.27,cs),
(413,166,o),
(305,139,o),
(223,158,cs),
(155,174,o),
(106,220,o),
(143.546,302.632,cs),
(172.339,366.579,o),
(65.305,255.004,o),
(38.454,195.368,cs),
(-8,92,o),
(76,-6,o),
(185,-16,cs),
(287,-24,o),
(412,46,o),
(473.537,265.73,cs)
);
}
);
width = 510;
}
);
unicode = 98;
},
{
glyphname = c;
lastChange = "2023-11-01 23:50:02 +0000";
layers = (
{
layerId = m01;
shapes = (
{
closed = 1;
nodes = (
(330.06,443.651,o),
(442.074,585.568,o),
(436.56,607.267,cs),
(431,630,o),
(392,706,o),
(321,701,cs),
(279,699,o),
(226,669,o),
(161.086,584.646,cs),
(33,418,o),
(-3,259,o),
(16,147,cs),
(31,56,o),
(84,-7,o),
(154,-14,cs),
(208,-20,o),
(274,9,o),
(340.354,76.726,cs),
(423.507,161.147,o),
(437.555,261.375,o),
(348.807,171.274,cs),
(316,138,o),
(284,131,o),
(255,141,cs),
(210,157,o),
(172,216,o),
(156,285,cs),
(137,361,o),
(144,450,o),
(190.462,511.354,cs),
(204,530,o),
(236,543,o),
(266,536,cs),
(290,531,o),
(313,511,o),
(323.686,468.733,cs)
);
}
);
width = 448;
}
);
unicode = 99;
},
{
glyphname = d;
lastChange = "2023-11-01 23:50:15 +0000";
layers = (
{
layerId = m01;
shapes = (
{
closed = 1;
nodes = (
(106.01,739.752,o),
(42.344,571.924,o),
(59.432,558.758,cs),
(219,436,o),
(312,335,o),
(345,235,cs),
(369,162,o),
(360,91,o),
(322.932,11.805,cs),
(299.134,-38.17,o),
(424.643,70.717,o),
(447.252,118.195,cs),
(481,188,o),
(488,254,o),
(472,319,cs),
(440,454,o),
(311,582,o),
(122.387,727.133,cs)
);
},
{
closed = 1;
nodes = (
(179.941,590.718,o),
(104.165,569.072,o),
(101.124,547.26,cs),
(79.791,394.26,o),
(58.457,241.26,o),
(37.124,88.26,cs),
(34.022,66.013,o),
(109.96,88.828,o),
(112.876,109.74,cs),
(134.209,262.74,o),
(155.543,415.74,o),
(176.876,568.74,cs)
);
},
{
closed = 1;
nodes = (
(73.165,219.805,o),
(9.5,51.977,o),
(26.589,38.812,cs),
(73,3,o),
(142,-13,o),
(208,-15,cs),
(251,-16,o),
(292,-10,o),
(326.039,-0.058,cs),
(347.02,6.279,o),
(405.323,177.479,o),
(380.748,170.058,cs),
(340,158,o),
(287,153,o),
(235,158,cs),
(180,163,o),
(127,179,o),
(89.544,207.188,cs)
);
}
);
width = 492;
}
);
unicode = 100;
},
{
glyphname = e;
lastChange = "2023-11-01 23:45:31 +0000";
layers = (
{
layerId = m01;
shapes = (
{
closed = 1;
nodes = (
(310.619,454.27,o),
(438.273,581.885,o),
(431.224,600.745,cs),
(394.418,699.228,o),
(322.158,730.021,o),
(268.519,704.264,cs),
(14.733,582.402,o),
(51.014,137.963,o),
(32.974,45.429,cs),
(21.823,-11.768,o),
(41.931,2.694,o),
(44.28,3.529,cs),
(88.537,19.265,o),
(120.535,26.899,o),
(170.729,18.3,cs),
(228.892,8.336,o),
(317.197,-13.7,o),
(367.296,27.29,cs),
(393.606,48.816,o),
(449.368,217.799,o),
(418.704,192.71,cs),
(380.803,161.7,o),
(289.129,177.788,o),
(231.271,187.7,cs),
(187.482,195.201,o),
(151.463,196.735,o),
(105.72,180.471,c),
(109.489,166.504,o),
(113.257,152.537,o),
(117.026,138.571,c),
(166.98,394.804,o),
(185.506,539.342,o),
(215.481,553.736,cs),
(228.626,560.047,o),
(265.424,575.195,o),
(302.776,475.255,cs)
);
},
{
closed = 1;
nodes = (
(63.231,437.661,o),
(2.981,268.21,o),
(24.276,268.276,cs),
(131.943,268.609,o),
(239.61,268.942,o),
(347.276,269.276,cs),
(367.333,269.338,o),
(428.893,438.793,o),
(406.724,438.724,cs),
(299.057,438.391,o),
(191.39,438.058,o),
(83.724,437.724,cs)
);
}
);
width = 451;
}
);
unicode = 101;
},
{
glyphname = f;
lastChange = "2023-11-01 23:45:31 +0000";
layers = (
{
layerId = m01;
shapes = (
{
closed = 1;
nodes = (
(420.7,592.038,o),
(466.235,751.961,o),
(429.561,704.081,cs),
(403.899,670.578,o),
(336.998,658.725,o),
(293.002,658.725,cs),
(238.26,658.725,o),
(175.546,680.931,o),
(143.475,710.33,cs),
(113.255,738.031,o),
(64.252,578.476,o),
(63.852,574.232,cs),
(45.813,382.887,o),
(27.95,197.94,o),
(10.59,13.799,cs),
(6.297,-31.735,o),
(85.54,15.155,o),
(89.41,56.201,cs),
(109.383,268.06,o),
(128.854,479.113,o),
(148.148,683.768,c),
(121.607,638.402,o),
(95.066,593.036,o),
(68.525,547.67,c),
(108.454,511.069,o),
(175.74,489.275,o),
(232.998,489.275,cs),
(285.002,489.275,o),
(342.101,489.422,o),
(388.439,549.919,cs)
);
},
{
closed = 1;
nodes = (
(327.144,226.259,o),
(377.345,399.467,o),
(356.019,399.611,cs),
(257.685,400.278,o),
(159.352,400.945,o),
(61.019,401.611,cs),
(41.545,401.743,o),
(-7.722,228.529,o),
(12.981,228.389,cs),
(111.315,227.722,o),
(209.648,227.055,o),
(307.981,226.389,cs)
);
}
);
width = 451;
}
);
unicode = 102;
},
{
glyphname = g;
lastChange = "2023-11-01 23:50:37 +0000";
layers = (
{
layerId = m01;
shapes = (
{
closed = 1;
nodes = (
(295.675,350.318,o),
(208.177,218.481,o),
(268.782,266.46,cs),
(282,277,o),
(315,286,o),
(338,272,cs),
(353,262,o),
(364,243,o),
(361.441,208.882,cs),
(358.982,168.067,o),
(351.398,126.466,o),
(346.48,85.246,cs),
(337.92,13.497,o),
(355.279,-8.377,o),
(371.255,-15.224,cs),
(389.879,-23.206,o),
(517.223,104.448,o),
(496.745,113.224,cs),
(486.244,117.725,o),
(479.451,125.122,o),
(487.52,192.754,cs),
(492.467,234.217,o),
(500.018,274.965,o),
(502.559,317.118,cs),
(505,365,o),
(475,402,o),
(435,412,cs),
(408,419,o),
(375,413,o),
(345.218,389.54,cs)
);
},
{
closed = 1;
nodes = (
(382.074,483.42,o),
(509.441,610.667,o),
(497.815,626.445,cs),
(453,687,o),
(404,719,o),
(351,717,cs),
(295,715,o),
(235,674,o),
(174.818,590.946,cs),
(83,465,o),
(43,331,o),
(39,220,cs),
(36,98,o),
(77,5,o),
(145,-13,cs),
(186,-24,o),
(235,-8,o),
(290.594,43.526,cs),
(338.166,88.017,o),
(448.204,315.564,o),
(450.113,321.29,cs),
(465.427,367.233,o),
(397.057,348.22,o),
(381.887,302.71,cs),
(344.657,191.02,o),
(309.886,160.924,o),
(309.406,160.474,cs),
(280,133,o),
(254,125,o),
(234,131,cs),
(194,142,o),
(170,206,o),
(163,281,cs),
(155,372,o),
(170,481,o),
(209.182,535.054,cs),
(211,537,o),
(227,568,o),
(259,574,cs),
(286,578,o),
(323,564,o),
(370.185,499.555,cs)
);
}
);
width = 520;
}
);
unicode = 103;
},
{
glyphname = h;
lastChange = "2023-11-01 23:45:31 +0000";
layers = (
{
layerId = m01;
shapes = (
{
closed = 1;
nodes = (
(64.063,436.679,o),
(3.396,267.227,o),
(23.998,267.275,cs),
(168.331,267.608,o),
(312.665,267.942,o),
(456.998,268.275,cs),
(476.491,268.32,o),
(538.496,437.775,o),
(517.002,437.725,cs),
(372.669,437.392,o),
(228.335,437.058,o),
(84.002,436.725,cs)
);
},
{
closed = 1;
nodes = (
(185.056,726.462,o),
(54.699,602.655,o),
(64.803,584.131,cs),
(82.134,552.357,o),
(82.585,548.17,o),
(78.441,499.882,cs),
(67.183,368.685,o),
(59.403,237.193,o),
(49.441,105.882,cs),
(44.371,39.049,o),
(57.838,20.058,o),
(86.769,0.029,cs),
(103.027,-11.226,o),
(230.069,116.314,o),
(213.231,127.971,cs),
(190.162,143.942,o),
(185.917,152.93,o),
(190.559,214.118,cs),
(200.521,345.429,o),
(208.301,476.921,o),
(219.559,608.118,cs),
(224.177,661.936,o),
(213.866,673.643,o),
(195.197,707.869,cs)
);
},
{
closed = 1;
nodes = (
(453.056,726.462,o),
(322.699,602.655,o),
(332.803,584.131,cs),
(349.737,553.085,o),
(350.072,547.649,o),
(346.441,499.882,cs),
(336.459,368.573,o),
(327.403,237.193,o),
(317.441,105.882,cs),
(312.371,39.049,o),
(325.838,20.058,o),
(354.769,0.029,cs),
(371.027,-11.226,o),
(498.069,116.314,o),
(481.231,127.971,cs),
(458.162,143.942,o),
(453.917,152.93,o),
(458.559,214.118,cs),
(468.521,345.429,o),
(477.577,476.809,o),
(487.559,608.118,cs),
(491.683,662.37,o),
(482.263,672.915,o),
(463.197,707.869,cs)
);
}
);
width = 542;
}
);
unicode = 104;
},
{
glyphname = i;
lastChange = "2023-11-01 23:45:31 +0000";
layers = (
{
layerId = m01;
shapes = (
{
closed = 1;
nodes = (
(162.056,726.462,o),
(31.699,602.655,o),
(41.803,584.131,cs),
(58.737,553.085,o),
(59.99,547.65,o),
(55.441,489.882,cs),
(45.365,361.914,o),
(36.274,233.869,o),
(26.441,105.882,cs),
(21.307,39.055,o),
(34.838,20.059,o),
(63.769,0.029,cs),
(80.027,-11.226,o),
(207.069,116.314,o),
(190.231,127.971,cs),
(167.162,143.941,o),
(162.858,152.932,o),
(167.559,214.118,cs),
(177.391,342.105,o),
(186.482,470.15,o),
(196.559,598.118,cs),
(201.619,662.381,o),
(191.263,672.915,o),
(172.197,707.869,cs)
);
}
);
width = 223;
}
);
unicode = 105;
},
{
glyphname = j;
lastChange = "2023-11-01 23:50:47 +0000";
layers = (
{
layerId = m01;
shapes = (
{
closed = 1;
nodes = (
(206.675,306.611,o),
(78.184,197.691,o),
(56.021,152.898,cs),
(34,107,o),
(42,59,o),
(69,26,cs),
(116,-31,o),
(217,-44,o),
(311.816,77.149,cs),
(361.438,140.608,o),
(366.408,230.196,o),
(312.184,160.851,cs),
(276,115,o),
(214,115,o),
(184,149,cs),
(164,171,o),
(158,208,o),
(182.179,257.102,cs)
);
},
{
closed = 1;
nodes = (
(488.516,733.995,o),
(361.262,627.506,o),
(341.07,582.075,cs),
(332.532,562.865,o),
(320.578,551.716,o),
(315.441,492.882,cs),
(304.77,370.666,o),
(296.886,248.207,o),
(287.441,125.882,cs),
(278.694,12.594,o),
(336.917,131.754,o),
(336.047,131.214,cs),
(283.51,98.605,o),
(181.173,-24.181,o),
(243.953,14.786,cs),
(328.754,67.421,o),
(426.14,202.79,o),
(428.559,234.118,cs),
(438.003,356.443,o),
(445.887,478.901,o),
(456.559,601.118,cs),
(462.084,664.401,o),
(461.468,673.135,o),
(468.93,689.925,cs)
);
},
{
closed = 1;
nodes = (
(407.625,551.756,o),
(487.234,711.604,o),
(454.354,695.165,cs),
(440,688,o),
(399,693,o),
(355,696,cs),
(323,698,o),
(290,698,o),
(265.756,691.885,cs),
(242.974,685.81,o),
(136.967,515.084,o),
(165.58,522.714,cs),
(197,531,o),
(240,529,o),
(281,528,cs),
(321,527,o),
(358,527,o),
(378.981,537.434,cs)
);
}
);
width = 499;
}
);
unicode = 106;
},
{
glyphname = k;
lastChange = "2023-11-01 23:51:44 +0000";
layers = (
{
layerId = m01;
shapes = (
{
closed = 1;
nodes = (
(181,373,o),
(74,236,o),
(119.072,259.631,cs),
(178,290,o),
(225,285,o),
(262,260,cs),
(338,209,o),
(369,76,o),
(354.226,6.329,cs),
(346.074,-32.576,o),
(466.48,96.857,o),
(473.774,131.671,cs),
(490,209,o),
(457,367,o),
(360,408,cs),
(322,424,o),
(276,422,o),
(218.928,392.369,cs)
);
},
{
closed = 1;
nodes = (
(132.141,720.886,o),
(0.55,590.595,o),
(16.788,578.417,cs),
(21.547,574.848,o),
(39.812,550.841,o),
(35.522,496.328,cs),
(25.61,370.347,o),
(16.202,244.327,o),
(6.522,118.328,cs),
(1.548,53.574,o),
(1.522,-0.324,o),
(46.525,-0.324,cs),
(73.425,-0.324,o),
(203.969,152.324,o),
(171.475,152.324,cs),
(148.393,152.324,o),
(146.501,164.894,o),
(151.478,229.672,cs),
(161.157,355.671,o),
(170.565,481.691,o),
(180.478,607.672,cs),
(185.947,677.178,o),
(158.453,701.152,o),
(147.212,709.583,cs)
);
},
{
closed = 1;
nodes = (
(503,693,o),
(479,696,o),
(451,693,cs),
(426,690,o),
(397,683,o),
(387.939,671.779,cs),
(362.681,643.154,o),
(113.664,320.535,o),
(109.406,315.171,cs),
(98,301,o),
(97,290,o),
(100,281,cs),
(110,262,o),
(152,261,o),
(178.594,294.829,cs),
(186.17,304.372,o),
(476.892,663.028,o),
(492.061,680.221,cs)
);
}
);
width = 502;
}
);
unicode = 107;
},
{
glyphname = l;
lastChange = "2023-11-01 23:51:07 +0000";
layers = (
{
layerId = m01;
shapes = (
{
closed = 1;
nodes = (
(150.141,720.886,o),
(18.55,590.595,o),
(34.788,578.417,cs),
(39.547,574.848,o),
(57.812,550.841,o),
(53.522,496.328,cs),
(43.61,370.347,o),
(34.202,244.327,o),
(24.522,118.328,cs),
(19.548,53.574,o),
(19.522,-0.324,o),
(64.525,-0.324,cs),
(91.425,-0.324,o),
(221.969,152.324,o),
(189.475,152.324,cs),
(166.393,152.324,o),
(164.501,164.894,o),
(169.478,229.672,cs),
(179.157,355.671,o),
(188.565,481.691,o),
(198.478,607.672,cs),
(203.947,677.178,o),
(176.453,701.152,o),
(165.212,709.583,cs)
);
},
{
closed = 1;
nodes = (
(133.673,125.431,o),
(57.789,-6.86,o),
(104.542,30.431,cs),
(134,54,o),
(168,59,o),
(199,53,cs),
(239,46,o),
(274,20,o),
(281.648,0.672,cs),
(291.111,-22.309,o),
(392.921,126.516,o),
(384.352,147.328,cs),
(376,167,o),
(336,195,o),
(284,196,cs),
(250,197,o),
(211,187,o),
(171.458,155.569,cs)
);
}
);
width = 430;
}
);
unicode = 108;
},
{
glyphname = m;
lastChange = "2023-11-01 23:51:28 +0000";
layers = (
{
layerId = m01;
shapes = (
{
closed = 1;
nodes = (
(247.721,715.855,o),
(119.848,588.904,o),
(136.769,577.029,cs),
(167,556,o),
(199,433,o),
(223,299,cs),
(242,194,o),
(256,82,o),
(260.504,4.456,cs),
(262.051,-23.087,o),
(390.882,102.881,o),
(389.496,127.544,cs),
(385,200,o),
(374,300,o),
(358,397,cs),
(334,542,o),
(299,680,o),
(263.231,704.971,cs)
);
},
{
closed = 1;
nodes = (
(-1,4,o),
(16,-4,o),
(37,4,cs),
(54,9,o),
(72,24,o),
(81.667,45.064,cs),
(125,139,o),
(152,236,o),
(169,324,cs),
(200,483,o),
(197,608,o),
(196.821,609.317,cs),
(196.889,644.34,o),
(127.243,595.371,o),
(127.179,562.683,cs),
(127,556,o),
(126,467,o),
(106,346,cs),
(90,253,o),
(62,140,o),
(12.333,32.936,cs)
);
},
{
closed = 1;
nodes = (
(243.865,56.259,o),
(336.441,114.849,o),
(361.408,165.482,cs),
(472.836,391.462,o),
(528.854,626.554,o),
(529.463,629.064,cs),
(540.67,675.242,o),
(442.428,597.692,o),
(432.537,556.936,cs),
(430.304,547.737,o),
(379.341,331.008,o),
(272.592,114.518,cs)
);
},
{
closed = 1;
nodes = (
(554.339,702.515,o),
(425.971,573.485,o),
(453.803,573.485,cs),
(485.855,573.485,o),
(451.251,111.231,o),
(502.892,0.003,cs),
(511.951,-19.507,o),
(639.426,108.08,o),
(631.108,125.997,cs),
(578.749,238.769,o),
(620.145,702.515,o),
(576.197,702.515,cs)
);
}
);
width = 650;
}
);
unicode = 109;
},
{
glyphname = n;
lastChange = "2023-11-01 23:51:25 +0000";
layers = (
{
layerId = m01;
shapes = (
{
closed = 1;
nodes = (
(158.309,725.859,o),
(37.235,606.783,o),
(47.423,588.533,cs),
(138.147,426.028,o),
(238.105,116.633,o),
(340.896,20.896,cs),
(354.969,7.789,o),
(475.698,127.512,o),
(461.104,141.104,cs),
(359.895,235.367,o),
(259.853,543.972,o),
(168.577,707.467,cs)
);
},
{
closed = 1;
nodes = (
(16,-4,o),
(37,-4,o),
(58,8,cs),
(77,18,o),
(95,38,o),
(98.994,58.212,cs),
(110,117.646,o),
(150.323,586.195,o),
(150.41,587.201,cs),
(152,608,o),
(137,609,o),
(119,601,cs),
(98,592,o),
(74,568,o),
(71.59,544.799,cs),
(70.221,529.054,o),
(32.447,83.568,o),
(21.006,21.788,cs)
);
},
{
closed = 1;
nodes = (
(458.543,725.849,o),
(335.332,609.048,o),
(345.395,590.6,cs),
(362.347,559.52,o),
(363.805,553.634,o),
(359.307,496.345,cs),
(323.651,42.187,o),
(310.743,28.001,o),
(367.782,1.302,cs),
(386.097,-7.27,o),
(506.1,113.391,o),
(486.218,122.698,cs),
(449.257,139.999,o),
(457.238,146.057,o),
(492.693,597.655,cs),
(497.776,662.399,o),
(487.653,672.48,o),
(468.605,707.4,cs)
);
}
);
width = 515;
}
);
unicode = 110;
},
{
glyphname = o;
lastChange = "2023-11-01 23:52:00 +0000";
layers = (
{
layerId = m01;
shapes = (
{
closed = 1;
nodes = (
(423,176,o),
(464,317,o),
(460,437,cs),
(456,586,o),
(383,703,o),
(292,716,cs),
(230,724,o),
(161,687,o),
(96.663,582.698,cs),
(18,454,o),
(5,305,o),
(30,188,cs),
(55,75,o),
(115,-8,o),
(188,-14,cs),
(228,-17,o),
(270,2,o),
(313.048,50.373,cs)
);
},
{
closed = 1;
nodes = (
(296,129,o),
(284,124,o),
(271,126,cs),
(232,131,o),
(190,197,o),
(162,279,cs),
(128,377,o),
(115,498,o),
(155.337,563.302,cs),
(171,589,o),
(190,592,o),
(211,580,cs),
(252,557,o),
(296,475,o),
(321,386,cs),
(347,293,o),
(351,192,o),
(306.952,141.627,cs)
);
}
);
width = 479;
}
);
unicode = 111;
},
{
glyphname = p;
lastChange = "2023-11-01 23:52:04 +0000";
layers = (
{
layerId = m01;
shapes = (
{
closed = 1;
nodes = (
(71.193,302.758,o),
(-4.909,195.165,o),
(74.722,224.953,cs),
(313,314,o),
(396,422,o),
(400,513,cs),
(405,636,o),
(268,730,o),
(169.526,716.03,cs),
(152.368,713.615,o),
(38.657,621.415,o),
(37.373,599.453,cs),
(27.751,434.877,o),
(16.062,270.434,o),
(6.441,105.882,cs),
(2.691,41.741,o),
(15.11,-0.515,o),
(45.803,-0.515,cs),
(69.598,-0.515,o),
(196.621,128.515,o),
(168.197,128.515,cs),
(146.886,128.515,o),
(143.822,150.207,o),
(147.559,214.118,cs),
(157.271,380.233,o),
(164.916,546.457,o),
(174.627,712.547,c),
(130.576,673.688,o),
(86.525,634.829,o),
(42.474,595.97,c),
(200,618,o),
(247,547,o),
(239,471,cs),
(233,411,o),
(190,347,o),
(141.468,329.047,cs)
);
}
);
width = 388;
}
);
unicode = 112;
},
{
glyphname = q;
lastChange = "2023-11-01 23:52:40 +0000";
layers = (
{
layerId = m01;
shapes = (
{
closed = 1;
nodes = (
(511,204,o),
(551,387,o),
(520,521,cs),
(495,627,o),
(424,702,o),
(341,715,cs),
(272,725,o),
(194,693,o),
(126.907,599.685,cs),
(6,432,o),
(2,265,o),
(51,148,cs),
(89,56,o),
(148,-7,o),
(218,-11,cs),
(254,-14,o),
(301,2,o),
(331.879,31.514,cs)
);
},
{
closed = 1;
nodes = (
(354,126,o),
(321,119,o),
(291,131,cs),
(252,147,o),
(219,193,o),
(195,250,cs),
(148,358,o),
(132,503,o),
(163.093,546.315,cs),
(198,595,o),
(238,593,o),
(274,564,cs),
(314,532,o),
(352,467,o),
(377,398,cs),
(413,300,o),
(425,195,o),
(390.121,160.486,cs)
);
},
{
closed = 1;
nodes = (
(324.08,325.983,o),
(270.056,263.812,o),
(284.855,241.613,cs),
(299.226,220.057,o),
(456.765,-8.752,o),
(456.833,-8.852,cs),
(472.22,-31.201,o),
(526.76,30.203,o),
(511.167,52.852,cs),
(503.033,64.667,o),
(360.596,271.211,o),
(339.594,302.713,cs)
);
}
);
width = 600;
}
);
unicode = 113;
},
{
glyphname = r;
lastChange = "2023-11-01 23:52:56 +0000";
layers = (
{
layerId = m01;
shapes = (
{
closed = 1;
nodes = (
(100.883,354.456,o),
(35.27,206.806,o),
(66.861,225.325,cs),
(151,275,o),
(220,283,o),
(267,262,cs),
(332,231,o),
(354,142,o),
(313.769,19.91,cs),
(292.717,-44.068,o),
(422.889,55.31,o),
(442.231,114.09,cs),
(500,289,o),
(428,403,o),
(308,416,cs),
(255,422,o),
(191,407,o),
(125.139,368.675,cs)
);
},
{
closed = 1;
nodes = (
(161.416,319.046,o),
(163.759,236.315,o),
(246.626,303.628,cs),
(394,423,o),
(444,526,o),
(441,599,cs),
(437,671,o),
(382,714,o),
(315,714,cs),
(240,715,o),
(151,662,o),
(102.33,539.199,cs),
(61.276,434.653,o),
(123.888,385.311,o),
(167.67,496.801,cs),
(184,539,o),
(238,552,o),
(277,541,cs),
(307,532,o),
(328,508,o),
(313,470,cs),
(304,446,o),
(281,417,o),
(239.374,382.372,cs)
);
},
{
closed = 1;
nodes = (
(181.472,538.386,o),
(109.826,558.986,o),
(93.714,508.861,cs),
(60.504,405.541,o),
(38.248,81.102,o),
(33.543,15.22,cs),
(30.331,-29.744,o),
(109.545,18.003,o),
(112.457,58.78,cs),
(115.752,104.898,o),
(145.496,426.459,o),
(166.286,491.139,cs)
);
}
);
width = 520;
}
);
unicode = 114;
},
{
glyphname = s;
lastChange = "2023-11-01 23:53:04 +0000";
layers = (
{
layerId = m01;
shapes = (
{
closed = 1;
nodes = (
(67.284,270.377,o),
(1.351,106.354,o),
(14.392,80.271,cs),
(29,51,o),
(79,-3,o),
(144,-14,cs),
(197,-22,o),
(260,-2,o),
(321.801,85.942,cs),
(495.27,332.617,o),
(396.699,351.643,o),
(292.105,420.065,cs),
(133.301,523.948,o),
(164.256,552.454,o),
(168.801,558.942,cs),
(176,569,o),
(202,571,o),
(235,562,cs),
(282,549,o),
(341,514,o),
(371.555,447.212,cs),
(382.864,422.081,o),
(445.961,591.642,o),
(436.445,612.788,cs),
(423,642,o),
(362,713,o),
(287,714,cs),
(243,715,o),
(194,692,o),
(147.199,625.058,cs),
(-7.807,403.784,o),
(63.257,358.386,o),
(167.895,289.935,cs),
(328.349,184.973,o),
(315.449,173.743,o),
(300.199,152.058,cs),
(290,138,o),
(253,136,o),
(211,147,cs),
(162,160,o),
(106,192,o),
(79.608,245.729,cs)
);
}
);
width = 450;
}
);
unicode = 115;
},
{
glyphname = t;
lastChange = "2023-11-01 23:45:31 +0000";
layers = (
{
layerId = m01;
shapes = (
{
closed = 1;
nodes = (
(426.039,540.517,o),
(493.819,708.379,o),
(452.476,701.351,cs),
(353.156,684.467,o),
(140.439,716.781,o),
(77.246,684.095,cs),
(54.769,672.469,o),
(9.203,499.723,o),
(32.754,511.905,cs),
(85.561,539.219,o),
(290.844,517.533,o),
(391.524,534.649,cs)
);
},
{
closed = 1;
nodes = (
(281.34,570.004,o),
(147.417,442.641,o),
(155.896,422.653,cs),
(168.586,392.741,o),
(107.934,78.087,o),
(141.012,-1.508,cs),
(149.621,-22.223,o),
(280.776,108.768,o),
(272.988,127.508,cs),
(242.066,201.913,o),
(305.414,513.259,o),
(290.104,549.347,cs)
);
}
);
width = 490;
}
);
unicode = 116;
},
{
glyphname = u;
lastChange = "2023-11-01 23:45:31 +0000";
layers = (
{
layerId = m01;
shapes = (
{
closed = 1;
nodes = (
(144.525,719.627,o),
(16.461,593.222,o),
(34.117,572.623,cs),
(43.841,561.278,o),
(53.766,542.51,o),
(49.646,497.338,cs),
(40.646,398.671,o),
(31.646,300.004,o),
(22.646,201.338,cs),
(11.353,77.531,o),
(105.982,-45.865,o),
(235.891,-4.412,cs),
(343.989,30.081,o),
(421.962,154.776,o),
(440.265,245.368,cs),
(461.544,350.687,o),
(469.235,681.567,o),
(469.516,689.918,cs),
(470.96,732.83,o),
(391.893,685.963,o),
(390.484,644.082,cs),
(390.08,632.083,o),
(380.025,351.16,o),
(361.735,260.632,cs),
(338.333,144.802,o),
(284.082,122.318,o),
(278.109,120.412,cs),
(188.076,91.683,o),
(157.116,182.426,o),
(167.354,294.662,cs),
(176.354,393.329,o),
(185.354,491.996,o),
(194.354,590.662,cs),
(200.629,659.455,o),
(176.159,682.722,o),
(161.883,699.377,cs)
);
}
);
width = 483;
}
);
unicode = 117;
},
{
glyphname = v;
lastChange = "2023-11-01 23:45:31 +0000";
layers = (
{
layerId = m01;
shapes = (
{
closed = 1;
nodes = (
(488.696,751.068,o),
(399.358,700.251,o),
(386.858,651.639,cs),
(342.602,479.534,o),
(223.732,124.338,o),
(211.686,73.965,cs),
(198.957,20.734,o),
(289.304,75.991,o),
(300.314,122.035,cs),
(310.268,163.662,o),
(429.398,520.466,o),
(475.142,698.361,cs)
);
},
{
closed = 1;
nodes = (
(188.966,-34.044,o),
(315.992,93.554,o),
(287.935,116.267,cs),
(271.279,129.75,o),
(255.241,143.482,o),
(241.39,229.913,cs),
(229.486,304.2,o),
(224.533,428.781,o),
(199.566,599.727,cs),
(189.574,668.14,o),
(173.881,708.475,o),
(146.182,715.4,cs),
(126.906,720.219,o),
(-1.592,592.453,o),
(21.818,586.6,cs),
(34.119,583.525,o),
(54.846,547.922,o),
(64.434,482.273,cs),
(88.519,317.373,o),
(85.415,193.944,o),
(96.61,124.087,cs),
(111.895,28.7,o),
(136.721,8.25,o),
(162.065,-12.267,cs)
);
}
);
width = 490;
}
);
unicode = 118;
},
{
glyphname = w;
lastChange = "2023-11-01 23:45:31 +0000";
layers = (
{
layerId = m01;
shapes = (
{
closed = 1;
nodes = (
(354.886,-24.019,o),
(475.417,96.046,o),
(465.834,113.467,cs),
(404.817,224.385,o),
(438.591,647.14,o),
(384.647,699.104,cs),
(371.146,712.11,o),
(249.747,593.049,o),
(264.439,578.896,cs),
(312.229,532.86,o),
(281.373,109.615,o),
(344.68,-5.467,cs)
);
},
{
closed = 1;
nodes = (
(685.346,718.464,o),
(614.329,703.663,o),
(592.046,652.163,cs),
(452.519,329.696,o),
(401.885,53.322,o),
(400.699,47.261,cs),
(395.039,18.339,o),
(479.475,97.101,o),
(484.101,120.739,cs),
(486.171,131.32,o),
(530.869,361.445,o),
(663.44,667.837,cs)
);
},
{
closed = 1;
nodes = (
(125.886,-24.019,o),
(246.417,96.046,o),
(236.834,113.467,cs),
(175.817,224.385,o),
(208.552,647.119,o),
(155.647,699.104,cs),
(142.236,712.282,o),
(20.886,593.196,o),
(35.439,578.896,cs),
(82.267,532.881,o),
(52.373,109.615,o),
(115.68,-5.467,cs)
);
},
{
closed = 1;
nodes = (
(428.392,642.88,o),
(357.879,629.171,o),
(334.49,577.841,cs),
(224.534,336.518,o),
(177.87,57.496,o),
(177.154,53.8,cs),
(171.575,25.012,o),
(245.003,90.241,o),
(249.646,114.2,cs),
(251.731,124.961,o),
(301.938,365.35,o),
(405.281,592.159,cs)
);
}
);
width = 600;
}
);
unicode = 119;
},
{
glyphname = x;
lastChange = "2023-11-01 23:53:21 +0000";
layers = (
{
layerId = m01;
shapes = (
{
closed = 1;
nodes = (
(576,683,o),
(564,698,o),
(545,701,cs),
(526,703,o),
(500,694,o),
(483.978,669.677,cs),
(458.538,631.108,o),
(52.515,45.513,o),
(52.141,44.973,cs),
(37,24,o),
(43,9,o),
(57,4,cs),
(75,-4,o),
(107,4,o),
(126.138,31.027,cs),
(144.155,57.013,o),
(518.791,596.236,o),
(559.743,658.323,cs)
);
},
{
closed = 1;
nodes = (
(446.993,3.968,o),
(555.815,147.505,o),
(525.96,142.447,cs),
(488,136,o),
(411,328,o),
(338,489,cs),
(285,606,o),
(234,706,o),
(201.017,698.291,cs),
(175.079,692.097,o),
(65.77,548.123,o),
(97.535,555.709,cs),
(129,563,o),
(188,430,o),
(249,292,cs),
(314,145,o),
(382,-7,o),
(420.929,-0.447,cs)
);
}
);
width = 609;
}
);
unicode = 120;
},
{
glyphname = y;
lastChange = "2023-11-01 23:53:25 +0000";
layers = (
{
layerId = m01;
shapes = (
{
closed = 1;
nodes = (
(571,696,o),
(559,707,o),
(541,706,cs),
(517,705,o),
(481,682,o),
(469.5,646.149,cs),
(463.837,628.027,o),
(169.274,58.948,o),
(160.096,41.124,cs),
(147,15,o),
(153,0,o),
(167,-4,cs),
(187,-11,o),
(225,5,o),
(243.904,42.876,cs),
(245.74,46.439,o),
(551.022,633.12,o),
(562.5,669.851,cs)
);
},
{
closed = 1;
nodes = (
(301.339,328.659,o),
(416.171,456.899,o),
(367.824,434.452,cs),
(297.77,401.927,o),
(242.9,738.462,o),
(159.719,709.626,cs),
(125.729,697.842,o),
(4.448,567.872,o),
(46.281,582.374,cs),
(113.1,605.538,o),
(162.23,264.073,o),
(260.176,309.548,cs)
);
}
);
width = 600;
}
);
unicode = 121;
},
{
glyphname = z;
lastChange = "2023-11-01 23:53:31 +0000";
layers = (
{
layerId = m01;
shapes = (
{
closed = 1;
nodes = (
(82.222,128.068,o),
(38.636,-40.055,o),
(89.665,3.608,cs),
(132,40,o),
(193,53,o),
(252,49,cs),
(309,46,o),
(366,28,o),
(401.523,0.812,cs),
(418.584,-12.042,o),
(480.567,157.065,o),
(464.477,169.188,cs),
(431,195,o),
(378,216,o),
(321,221,cs),
(255,227,o),
(182,213,o),
(122.335,162.392,cs)
);
},
{
closed = 1;
nodes = (
(195.35,726.758,o),
(130.821,560.051,o),
(145.913,541.427,cs),
(170,512,o),
(226,493,o),
(288,491,cs),
(350,490,o),
(416,505,o),
(460.684,542.623,cs),
(487.488,565.647,o),
(542.621,734.267,o),
(511.316,707.377,cs),
(475,676,o),
(413,662,o),
(354,663,cs),
(292,663,o),
(234,680,o),
(210.087,708.573,cs)
);
},
{
closed = 1;
nodes = (
(502.974,626.556,o),
(418.286,621.456,o),
(396.817,572.815,cs),
(338.689,441.119,o),
(138.756,230.548,o),
(94.561,101.547,cs),
(77.658,52.209,o),
(165.148,64.902,o),
(181.439,112.453,cs),
(211.244,199.452,o),
(411.311,418.881,o),
(481.183,577.185,cs)
);
}
);
width = 600;
}
);
unicode = 122;
},
{
glyphname = period;
lastChange = "2023-11-01 23:53:57 +0000";
layers = (
{
layerId = m01;
shapes = (
{
closed = 1;
nodes = (
(253.585,157.09,o),
(193.614,-13.797,o),
(220.473,2.003,cs),
(228,6,o),
(247,3,o),
(268,1,cs),
(287,-1,o),
(307,-3,o),
(321.165,1.433,cs),
(341.844,7.85,o),
(403.345,178.174,o),
(378.835,170.567,cs),
(364,166,o),
(340,170,o),
(319,172,cs),
(301,174,o),
(285,175,o),
(275.527,169.997,cs)
);
}
);
width = 600;
}
);
unicode = 46;
},
{
glyphname = comma;
lastChange = "2023-11-01 23:54:01 +0000";
layers = (
{
layerId = m01;
shapes = (
{
closed = 1;
nodes = (
(264.517,165.107,o),
(204.266,-4.347,o),
(225.56,-4.178,cs),
(245,-4,o),
(259,-11,o),
(268,-23,cs),
(281,-41,o),
(283,-70,o),
(276.383,-95.361,cs),
(262.141,-153.563,o),
(343.725,-77.738,o),
(357.121,-22.989,cs),
(365,11,o),
(365,53,o),
(355,88,cs),
(344,131,o),
(320,166,o),
(285.007,165.27,cs)
);
}
);
width = 600;
}
);
unicode = 44;
},
{
glyphname = semicolon;
lastChange = "2023-11-01 23:54:07 +0000";
layers = (
{
layerId = m01;
shapes = (
{
closed = 1;
nodes = (
(253.001,469.304,o),
(193.034,298.489,o),
(220.056,314.003,cs),
(227,318,o),
(244,316,o),
(264,313,cs),
(284,311,o),
(306,309,o),
(321.583,313.433,cs),
(342.362,319.64,o),
(403.828,489.908,o),
(379.252,482.567,cs),
(364,478,o),
(341,482,o),
(319,484,cs),
(301,486,o),
(285,488,o),
(275.109,481.997,cs)
);
},
{
closed = 1;
nodes = (
(265.058,165.725,o),
(204.392,-3.725,o),
(224.998,-3.725,cs),
(245,-4,o),
(259,-12,o),
(268,-24,cs),
(281,-42,o),
(282,-71,o),
(276.449,-95.928,cs),
(262.854,-153.223,o),
(344.722,-76.137,o),
(357.551,-22.072,cs),
(367,17,o),
(364,65,o),
(351,102,cs),
(338,139,o),
(316,166,o),
(285.002,165.725,cs)
);
}
);
width = 600;
}
);
unicode = 59;
},
{
glyphname = hyphen;
lastChange = "2023-11-01 23:54:10 +0000";
layers = (
{
layerId = m01;
shapes = (
{
closed = 1;
nodes = (
(381.226,235.155,o),
(426.428,408.629,o),
(398.23,383.636,cs),
(377,365,o),
(309,377,o),
(241,383,cs),
(183,389,o),
(124,389,o),
(94.872,361.302,cs),
(71.411,338.664,o),
(26.825,165.388,o),
(55.128,192.698,cs),
(81,218,o),
(146,212,o),
(210,206,cs),
(272,200,o),
(334,193,o),
(357.77,214.364,cs)
);
}
